<svg width="269" height="60" viewBox="0 0 269 60" fill="#fbdb0b" xmlns="http://www.w3.org/2000/svg">
<rect x="1.5" y="1.5" width="269" height="57" fill="white" stroke="white" stroke-width="3"/>
<rect x="5" y="4" width="160" height="52" fill="#fbdb0b"/>
<path d="M30.38 17.28V19.92C32.7 19.96 34.53 20.34 35.87 21.06C37.21 21.78 38.16 22.74 38.72 23.94C39.28 25.12 39.56 26.44 39.56 27.9C39.56 28.86 39.41 29.82 39.11 30.78C38.83 31.72 38.34 32.58 37.64 33.36C36.94 34.12 36 34.74 34.82 35.22C33.64 35.7 32.16 35.96 30.38 36V39.3H27.71V36C25.89 35.96 24.38 35.7 23.18 35.22C22 34.72 21.07 34.08 20.39 33.3C19.71 32.5 19.23 31.63 18.95 30.69C18.67 29.75 18.53 28.82 18.53 27.9C18.53 26.84 18.68 25.84 18.98 24.9C19.3 23.94 19.81 23.1 20.51 22.38C21.23 21.64 22.18 21.05 23.36 20.61C24.54 20.17 25.99 19.94 27.71 19.92V17.28H30.38ZM27.71 22.2C26.11 22.24 24.83 22.5 23.87 22.98C22.93 23.46 22.26 24.12 21.86 24.96C21.46 25.78 21.26 26.75 21.26 27.87C21.26 29.05 21.48 30.08 21.92 30.96C22.38 31.82 23.08 32.49 24.02 32.97C24.98 33.45 26.21 33.72 27.71 33.78V22.2ZM30.38 33.78C31.92 33.72 33.16 33.44 34.1 32.94C35.06 32.44 35.75 31.76 36.17 30.9C36.61 30.02 36.83 29.01 36.83 27.87C36.83 26.73 36.63 25.75 36.23 24.93C35.83 24.09 35.16 23.44 34.22 22.98C33.28 22.5 32 22.24 30.38 22.2V33.78ZM55.9913 39H44.0213V17.58H55.9913V19.95H46.7213V26.64H55.4513V28.98H46.7213V36.63H55.9913V39ZM66.3613 17.58C69.1613 17.58 71.2013 18.13 72.4813 19.23C73.7613 20.33 74.4013 21.88 74.4013 23.88C74.4013 24.76 74.2513 25.61 73.9513 26.43C73.6713 27.23 73.2013 27.95 72.5413 28.59C71.8813 29.23 71.0013 29.74 69.9013 30.12C68.8013 30.48 67.4513 30.66 65.8513 30.66H63.3913V39H60.6913V17.58H66.3613ZM66.1213 19.89H63.3913V28.35H65.5513C66.9113 28.35 68.0413 28.21 68.9413 27.93C69.8413 27.63 70.5113 27.16 70.9513 26.52C71.3913 25.88 71.6113 25.04 71.6113 24C71.6113 22.62 71.1713 21.59 70.2913 20.91C69.4113 20.23 68.0213 19.89 66.1213 19.89ZM87.8253 32.91C87.1853 34.33 86.5353 35.52 85.8753 36.48C85.2353 37.42 84.4753 38.13 83.5953 38.61C82.7153 39.07 81.5953 39.3 80.2353 39.3C79.6753 39.3 79.1453 39.26 78.6453 39.18C78.1653 39.1 77.7253 38.99 77.3253 38.85V36.18C77.7253 36.36 78.1553 36.51 78.6153 36.63C79.0753 36.73 79.5553 36.78 80.0553 36.78C80.7953 36.78 81.4253 36.68 81.9453 36.48C82.4853 36.26 82.9553 35.91 83.3553 35.43C83.7753 34.95 84.1653 34.31 84.5253 33.51L76.2753 17.58H79.2453L85.2153 29.37C85.2953 29.51 85.3753 29.68 85.4553 29.88C85.5353 30.06 85.6153 30.25 85.6953 30.45C85.7953 30.65 85.8753 30.84 85.9353 31.02H86.0553C86.1153 30.88 86.1753 30.72 86.2353 30.54C86.3153 30.34 86.3853 30.15 86.4453 29.97C86.5253 29.77 86.5953 29.6 86.6553 29.46L91.8153 17.58H94.6653L87.8253 32.91ZM107.026 39L99.976 20.22H99.856C99.896 20.62 99.926 21.13 99.946 21.75C99.986 22.37 100.016 23.05 100.036 23.79C100.056 24.51 100.066 25.25 100.066 26.01V39H97.576V17.58H101.566L108.166 35.13H108.286L115.006 17.58H118.966V39H116.296V25.83C116.296 25.13 116.306 24.44 116.326 23.76C116.346 23.06 116.376 22.41 116.416 21.81C116.456 21.19 116.486 20.67 116.506 20.25H116.386L109.246 39H107.026ZM134.243 39L127.193 20.22H127.073C127.113 20.62 127.143 21.13 127.163 21.75C127.203 22.37 127.233 23.05 127.253 23.79C127.273 24.51 127.283 25.25 127.283 26.01V39H124.793V17.58H128.783L135.383 35.13H135.503L142.223 17.58H146.183V39H143.513V25.83C143.513 25.13 143.523 24.44 143.543 23.76C143.563 23.06 143.593 22.41 143.633 21.81C143.673 21.19 143.703 20.67 143.723 20.25H143.603L136.463 39H134.243Z" fill="white"/>
<path d="M194.35 39L191.77 32.37H183.28L180.73 39H178L186.37 17.49H188.8L197.14 39H194.35ZM188.56 23.49C188.5 23.33 188.4 23.04 188.26 22.62C188.12 22.2 187.98 21.77 187.84 21.33C187.72 20.87 187.62 20.52 187.54 20.28C187.44 20.68 187.33 21.09 187.21 21.51C187.11 21.91 187 22.28 186.88 22.62C186.78 22.96 186.69 23.25 186.61 23.49L184.18 29.97H190.96L188.56 23.49ZM206.19 17.58C207.97 17.58 209.46 17.75 210.66 18.09C211.88 18.43 212.79 18.99 213.39 19.77C214.01 20.55 214.32 21.59 214.32 22.89C214.32 23.73 214.16 24.48 213.84 25.14C213.54 25.78 213.08 26.32 212.46 26.76C211.86 27.18 211.12 27.47 210.24 27.63V27.78C211.14 27.92 211.95 28.18 212.67 28.56C213.41 28.94 213.99 29.48 214.41 30.18C214.83 30.88 215.04 31.79 215.04 32.91C215.04 34.21 214.74 35.32 214.14 36.24C213.54 37.14 212.68 37.83 211.56 38.31C210.46 38.77 209.14 39 207.6 39H200.07V17.58H206.19ZM206.73 26.7C208.57 26.7 209.83 26.41 210.51 25.83C211.19 25.23 211.53 24.35 211.53 23.19C211.53 22.01 211.11 21.17 210.27 20.67C209.45 20.15 208.13 19.89 206.31 19.89H202.77V26.7H206.73ZM202.77 28.95V36.72H207.09C208.99 36.72 210.31 36.35 211.05 35.61C211.79 34.87 212.16 33.9 212.16 32.7C212.16 31.94 211.99 31.28 211.65 30.72C211.33 30.16 210.78 29.73 210 29.43C209.24 29.11 208.2 28.95 206.88 28.95H202.77ZM226.362 39H223.662V19.95H216.972V17.58H233.022V19.95H226.362V39ZM254.356 28.26C254.356 29.92 254.146 31.43 253.726 32.79C253.306 34.13 252.676 35.29 251.836 36.27C251.016 37.25 249.986 38 248.746 38.52C247.526 39.04 246.106 39.3 244.486 39.3C242.806 39.3 241.346 39.04 240.106 38.52C238.866 37.98 237.836 37.23 237.016 36.27C236.196 35.29 235.586 34.12 235.186 32.76C234.786 31.4 234.586 29.89 234.586 28.23C234.586 26.03 234.946 24.11 235.666 22.47C236.386 20.83 237.476 19.55 238.936 18.63C240.416 17.71 242.276 17.25 244.516 17.25C246.656 17.25 248.456 17.71 249.916 18.63C251.376 19.53 252.476 20.81 253.216 22.47C253.976 24.11 254.356 26.04 254.356 28.26ZM237.436 28.26C237.436 30.06 237.686 31.61 238.186 32.91C238.686 34.21 239.456 35.21 240.496 35.91C241.556 36.61 242.886 36.96 244.486 36.96C246.106 36.96 247.426 36.61 248.446 35.91C249.486 35.21 250.256 34.21 250.756 32.91C251.256 31.61 251.506 30.06 251.506 28.26C251.506 25.56 250.946 23.45 249.826 21.93C248.706 20.39 246.936 19.62 244.516 19.62C242.896 19.62 241.556 19.97 240.496 20.67C239.456 21.35 238.686 22.34 238.186 23.64C237.686 24.92 237.436 26.46 237.436 28.26Z" fill="black"/>
</svg>
