<svg xmlns="http://www.w3.org/2000/svg" width="500" height="500" version="1.0" viewBox="0 0 375 374.999991">
  <defs>
    <clipPath id="a">
      <path d="M54.628906 137.871094h108.375v99.257812h-108.375Zm0 0"/>
    </clipPath>
    <clipPath id="b">
      <path d="M54.628906 137.871094H113.375L163.003906 187.5 113.375 237.128906H54.628906L104.261719 187.5Zm0 0"/>
    </clipPath>
    <clipPath id="c">
      <path d="M130.636719 137.871094h108.371093v99.257812H130.636719Zm0 0"/>
    </clipPath>
    <clipPath id="d">
      <path d="M130.636719 137.871094h58.742187L239.007812 187.5l-49.628906 49.628906h-58.742187L180.265625 187.5Zm0 0"/>
    </clipPath>
    <clipPath id="e">
      <path d="M207.21875 137.871094h108.371094v99.257812H207.21875Zm0 0"/>
    </clipPath>
    <clipPath id="f">
      <path d="M207.21875 137.871094h58.742188L315.589844 187.5l-49.628906 49.628906H207.21875L256.847656 187.5Zm0 0"/>
    </clipPath>
  </defs>
  <g clip-path="url(#a)">
    <g clip-path="url(#b)">
      <path fill="#ffce00" d="M54.628906 137.871094h108.375v99.257812h-108.375Zm0 0"/>
    </g>
  </g>
  <g clip-path="url(#c)">
    <g clip-path="url(#d)">
      <path fill="#ffce00" d="M130.636719 137.871094h108.371093v99.257812H130.636719Zm0 0"/>
    </g>
  </g>
  <g clip-path="url(#e)">
    <g clip-path="url(#f)">
      <path fill="#ffce00" d="M207.21875 137.871094h108.371094v99.257812H207.21875Zm0 0"/>
    </g>
  </g>
  <path fill="none" stroke="#000" stroke-width="3.27999836" d="M67.76953658 200.73438167c-.39453176-.960938-10.01953308-27.25000485-10.371096-27.99609871-.3515621-.73828075-.60937508-1.08984367-1.39843777-1.08984367h-7.34765665c-.78906269 0-1.04687566.35156292-1.35546894 1.08984367-.35156292.74609386-9.9726585 26.94141075-10.36718944 27.9960987-.39843749.96484374.03906227 1.52734344.78906268 1.52734344h7.07812566c1.31640666 0 1.5390631-.43749976 1.97656286-1.56640653.08593766-.22656217.39453175-1.10156251.83203152-2.50000028h9.44140797c.43749977 1.39843777.74609386 2.27343811.83203152 2.50000028.48046859 1.12890677.66406193 1.56640653 1.96484401 1.56640653h7.13281334c.7500004 0 1.14453134-.5624997.79296924-1.52734343Zm-17.76172149-10.05859535c.79296842-2.37109461 1.57031226-4.85937605 2.32031267-7.26171982.78906269 2.40234377 1.57031226 4.8906252 2.31640612 7.26171982Zm48.76953823-19.02734703h-6.82421924c-.60937508 0-1.0898445.4804686-1.0898445 1.08984367v16.66797208c0 4.28125013-1.74999986 5.63671907-4.77343838 5.63671907-3.06249997 0-4.80468755-1.35546894-4.80468755-5.63671907v-16.66797208c0-.60937508-.48046941-1.08984367-1.05468795-1.08984367h-6.86718889c-.60937508 0-1.08984367.4804686-1.08984367 1.08984367v15.22656549c0 11.23437667 6.07421965 14.82031489 13.81640806 14.82031489 7.74218923 0 13.7773466-3.58593822 13.7773466-14.8203149v-15.22656548c0-.60937508-.4804694-1.08984367-1.08984448-1.08984367Zm30.88281762 0h-24.32422283c-.60937508 0-1.08984367.52343742-1.08984367 1.08984367v5.3359389c0 .60937508.4804686 1.08984367 1.08984367 1.08984367h7.65625157v22.01172245c0 .60546853.4804686 1.08593712 1.08984367 1.08593712h6.82422006c.61718737 0 1.09765596-.4804686 1.09765596-1.08593712v-22.01172245h7.65625157c.60937508 0 1.08984367-.4804686 1.08984367-1.08984367v-5.3359389c0-.56640625-.48046859-1.08984367-1.08984367-1.08984367Zm21.86719057-.52343742c-8.92578285 0-16.402346 7.07812648-16.402346 15.8242209 0 8.75781409 7.47656315 15.83594057 16.402346 15.83594057 8.87500173 0 16.402346-7.07812648 16.402346-15.83594057 0-8.74609442-7.52734427-15.8242209-16.402346-15.8242209Zm0 23.91797224c-4.29296898 0-7.78515724-3.62890623-7.78515724-8.09375134 0-4.45312545 3.49218826-8.03906366 7.78515724-8.03906366 4.28515668 0 7.74218841 3.58593821 7.74218841 8.03906366 0 4.46484511-3.45703173 8.09375134-7.74218841 8.09375134Zm41.8984436-23.39453482h-20.03125304c-.60937508 0-1.08984367.4804686-1.08984367 1.08984367v28.43750502c0 .60546853.52343742 1.08593712 1.08984367 1.08593712h6.8671889c.57421853 0 1.09765677-.4804686 1.09765677-1.08593712v-10.45703283h9.75000125c.60937508 0 1.08984367-.48046941 1.08984367-1.09765678v-5.33203235c0-.61718737-.48046859-1.09765596-1.08984367-1.09765596h-9.75000125v-4.02734453h12.06640737c.56640707 0 1.04687566-.4804686 1.04687566-1.08984367v-5.3359389c0-.60937508-.48046859-1.08984367-1.04687566-1.08984367Zm26.63672322 23.08594154h-12.19531468v-4.01562568h9.7929709c.56640625 0 1.08984367-.48046941 1.08984367-1.09765678v-5.33203235c0-.61718737-.52343742-1.09765596-1.08984367-1.09765596h-9.7929709v-4.02734453h12.06640819c.56640625 0 1.08984449-.4804686 1.08984449-1.08984367v-5.3359389c0-.60937508-.52343824-1.08984367-1.08984449-1.08984367H199.9414319c-.60546935 0-1.08593794.4804686-1.08593794 1.08984367v28.43750502c0 .60546853.4804686 1.08593712 1.08593794 1.08593712h20.12109643c.61718737 0 1.09765678-.4804686 1.09765678-1.08593712v-5.33984463c0-.60937508-.48046941-1.10156252-1.09765678-1.10156252Zm31.5820361 6.0859385c-.35156293-.52343825-3.58984395-6.17187616-5.67968872-9.70703325 2.88281319-1.7929687 4.36718861-4.94140715 4.36718861-8.75390753 0-6.51562597-4.24218785-10.71093926-11.375002-10.71093926h-12.33203264c-.60937508 0-1.0898445.4804686-1.0898445 1.08984367v28.43750502c0 .60546853.48046942 1.08593712 1.0898445 1.08593712h6.82421923c.6171882 0 1.09765678-.4804686 1.09765678-1.08593712v-8.2773455h2.35937495c1.96484401 3.58593822 4.3671886 7.96484485 4.55078195 8.2773455.29687525.52343742.87500035 1.08593712 1.65625074 1.08593712h7.74218841c1.05468795 0 1.18359362-.74609386.78906269-1.44140578Zm-9.410158-18.50390961c0 1.35546893-1.12890594 3.3320318-3.44921861 3.3320318h-4.23828213v-6.7382824h4.1562502c2.48828226 0 3.53125054 2.08984394 3.53125054 3.4062506Zm40.11328802 18.5039096c-.35156293-.52343824-3.58593822-6.17187615-5.67968872-9.70703324 2.88281319-1.7929687 4.36718861-4.94140715 4.36718861-8.75390753 0-6.51562597-4.23828212-10.71093926-11.37109627-10.71093926h-12.3359392c-.60937507 0-1.08984366.4804686-1.08984366 1.08984367v28.43750502c0 .60546853.48046859 1.08593712 1.08984367 1.08593712h6.82422006c.62109392 0 1.10156251-.4804686 1.10156251-1.08593712v-8.2773455h2.35937577c1.96484401 3.58593822 4.36718779 7.96484485 4.5468754 8.2773455.30078098.52343742.87890607 1.08593712 1.65624991 1.08593712h7.74218923c1.05859369 0 1.18750018-.74609386.78906269-1.44140578Zm-9.40625144-18.5039096c0 1.35546893-1.13281332 3.3320318-3.44921944 3.3320318h-4.23828212v-6.7382824h4.15234446c2.48828144 0 3.5351571 2.08984394 3.5351571 3.4062506Zm40.50781813-10.66797043h-6.82421924c-.60937508 0-1.0898445.4804686-1.0898445 1.08984367v16.66797208c0 4.28125013-1.74999986 5.63671907-4.77343756 5.63671907-3.0625008 0-4.80468837-1.35546894-4.80468837-5.63671907v-16.66797208c0-.60937508-.48046941-1.08984367-1.0585945-1.08984367h-6.86328234c-.60937508 0-1.08984367.4804686-1.08984367 1.08984367v15.22656549c0 11.23437667 6.07421965 14.82031489 13.81640888 14.82031489 7.74218841 0 13.77734579-3.58593822 13.77734579-14.8203149v-15.22656548c0-.60937508-.48046941-1.08984367-1.0898445-1.08984367Zm38.7109437 0h-5.16796933c-.73828156 0-1.08984448.25390642-1.6132819.91796917-.4804686.65234391-9.32031379 12.76953322-9.32031379 12.76953322s-8.78906407-12.1171893-9.26953266-12.76953322c-.52343742-.66406275-.87890608-.91796917-1.61328109-.91796917h-5.16797014c-.60937508 0-1.08984367.52343742-1.08984367 1.08984367v28.43750502c0 .60546853.4804686 1.08593712 1.08984367 1.08593712h6.82422006c.61718737 0 1.09765678-.4804686 1.09765678-1.08593712v-13.51953363s4.32421896 6.25781381 5.07421937 7.30468865c.83203151 1.26953128 1.3125001 1.12890677 1.65234418 1.12890677h2.85156239c.34375063 0 .82421922.14062451 1.65625073-1.12890677.70703077-1.04687484 5.03125055-7.30468865 5.03125055-7.30468865v13.51953363c0 .60546853.52343742 1.08593712 1.09765596 1.08593712h6.86718888c.56640625 0 1.08984367-.4804686 1.08984367-1.08593712v-28.43750502c0-.56640625-.52343742-1.08984367-1.08984367-1.08984367Zm0 0"/>
  <path fill="#fff" d="M67.767036 200.732138c-.394531-.960938-10.015625-27.25-10.367188-27.992188-.347656-.746093-.613281-1.09375-1.398437-1.09375h-7.347656c-.789063 0-1.050782.347657-1.355469 1.09375-.351563.742188-9.976563 26.941407-10.367188 27.992188-.394531.960938.042969 1.53125.785157 1.53125h7.085937c1.3125 0 1.53125-.4375 1.96875-1.574219.089844-.21875.394531-1.09375.832031-2.492187h9.449219c.4375 1.398437.742187 2.273437.828125 2.492187.480469 1.136719.65625 1.574219 1.96875 1.574219h7.128906c.746094 0 1.140625-.570312.789063-1.53125Zm-17.757813-10.058594c.785156-2.363281 1.574219-4.855468 2.316406-7.261718.789063 2.40625 1.574219 4.898437 2.320313 7.261718ZM98.779206 171.6462h-6.824218c-.613282 0-1.09375.480469-1.09375 1.09375v16.664063c0 4.285156-1.75 5.640625-4.769532 5.640625-3.0625 0-4.808593-1.355469-4.808593-5.640625V172.73995c0-.613281-.484375-1.09375-1.050781-1.09375h-6.867188c-.613281 0-1.09375.480469-1.09375 1.09375v15.21875c0 11.242188 6.078125 14.828126 13.820312 14.828126 7.742188 0 13.78125-3.585938 13.78125-14.828126v-15.21875c0-.613281-.484374-1.09375-1.09375-1.09375ZM129.658666 171.6462h-24.320312c-.613281 0-1.09375.523438-1.09375 1.09375v5.335938c0 .609375.480469 1.09375 1.09375 1.09375h7.652344v22c0 .613281.484375 1.09375 1.09375 1.09375h6.824218c.613282 0 1.09375-.480469 1.09375-1.09375v-22h7.65625c.609376 0 1.09375-.484375 1.09375-1.09375v-5.335938c0-.570312-.484374-1.09375-1.09375-1.09375ZM151.526691 171.118857c-8.921875 0-16.402344 7.085937-16.402344 15.835937 0 8.746094 7.480469 15.832032 16.402344 15.832032 8.878906 0 16.402344-7.085938 16.402344-15.832032 0-8.75-7.523438-15.835937-16.402344-15.835937Zm0 23.925781c-4.285156 0-7.785156-3.628906-7.785156-8.089844 0-4.460937 3.5-8.050781 7.785156-8.050781s7.742187 3.589844 7.742187 8.050781c0 4.460938-3.457031 8.089844-7.742187 8.089844ZM193.427501 171.6462h-20.03125c-.613281 0-1.09375.480469-1.09375 1.09375v28.429688c0 .613281.523438 1.09375 1.09375 1.09375h6.867188c.566406 0 1.09375-.480469 1.09375-1.09375v-10.453125h9.753906c.613281 0 1.09375-.480469 1.09375-1.09375v-5.335937c0-.613282-.480469-1.09375-1.09375-1.09375h-9.753906v-4.023438h12.070312c.570312 0 1.050781-.484375 1.050781-1.09375v-5.335938c0-.613281-.480469-1.09375-1.050781-1.09375ZM220.066923 194.73995h-12.203125v-4.023437h9.796875c.566406 0 1.09375-.480469 1.09375-1.09375v-5.335937c0-.613282-.527344-1.09375-1.09375-1.09375h-9.796875v-4.023438h12.070312c.570313 0 1.09375-.484375 1.09375-1.09375v-5.335938c0-.613281-.523437-1.09375-1.09375-1.09375h-19.988281c-.613281 0-1.09375.480469-1.09375 1.09375v28.429688c0 .613281.480469 1.09375 1.09375 1.09375h20.121094c.609375 0 1.09375-.480469 1.09375-1.09375V195.8337c0-.613281-.484375-1.09375-1.09375-1.09375ZM251.646158 200.818076c-.351562-.523438-3.585937-6.164063-5.6875-9.707032 2.886719-1.792968 4.375-4.945312 4.375-8.75 0-6.515625-4.242187-10.714844-11.371093-10.714844h-12.335938c-.613281 0-1.09375.480469-1.09375 1.09375v28.429688c0 .613281.480469 1.09375 1.09375 1.09375h6.824219c.609375 0 1.09375-.480469 1.09375-1.09375v-8.265625h2.359375c1.96875 3.585937 4.375 7.960937 4.550781 8.265625.304687.523438.875 1.09375 1.660156 1.09375h7.742188c1.050781 0 1.183593-.742188.789062-1.445312Zm-9.40625-18.5c0 1.355468-1.136719 3.324218-3.453125 3.324218h-4.242187v-6.738281h4.152343c2.496094 0 3.542969 2.101563 3.542969 3.414063ZM282.350954 200.818076c-.351562-.523438-3.585937-6.164063-5.6875-9.707032 2.886719-1.792968 4.375-4.945312 4.375-8.75 0-6.515625-4.242187-10.714844-11.371093-10.714844h-12.335938c-.613281 0-1.09375.480469-1.09375 1.09375v28.429688c0 .613281.480469 1.09375 1.09375 1.09375h6.824219c.609375 0 1.09375-.480469 1.09375-1.09375v-8.265625h2.359375c1.96875 3.585937 4.375 7.960937 4.550781 8.265625.304687.523438.875 1.09375 1.660156 1.09375h7.742188c1.050781 0 1.183593-.742188.789062-1.445312Zm-9.40625-18.5c0 1.355468-1.136719 3.324218-3.453125 3.324218h-4.242187v-6.738281h4.152343c2.496094 0 3.542969 2.101563 3.542969 3.414063ZM313.450267 171.6462h-6.824218c-.613282 0-1.09375.480469-1.09375 1.09375v16.664063c0 4.285156-1.75 5.640625-4.769532 5.640625-3.0625 0-4.808593-1.355469-4.808593-5.640625V172.73995c0-.613281-.484375-1.09375-1.050781-1.09375h-6.867188c-.613281 0-1.09375.480469-1.09375 1.09375v15.21875c0 11.242188 6.078125 14.828126 13.820312 14.828126 7.742188 0 13.78125-3.585938 13.78125-14.828126v-15.21875c0-.613281-.484374-1.09375-1.09375-1.09375ZM352.157853 171.6462h-5.160157c-.746093 0-1.09375.261719-1.621093.917969-.480469.65625-9.316407 12.773438-9.316407 12.773438s-8.789062-12.117188-9.273437-12.773438c-.523438-.65625-.875-.917969-1.617188-.917969h-5.160156c-.613281 0-1.09375.523438-1.09375 1.09375v28.429688c0 .613281.480469 1.09375 1.09375 1.09375h6.824219c.609375 0 1.09375-.480469 1.09375-1.09375v-13.515625s4.328125 6.253906 5.074219 7.304687c.828124 1.269532 1.308593 1.136719 1.660156 1.136719h2.84375c.347656 0 .832031.132813 1.660156-1.136719.703125-1.050781 5.03125-7.304687 5.03125-7.304687v13.515625c0 .613281.523438 1.09375 1.09375 1.09375h6.867188c.570312 0 1.09375-.480469 1.09375-1.09375V172.73995c0-.570312-.523438-1.09375-1.09375-1.09375Zm0 0"/>
</svg>