<?xml version="1.0" standalone="no"?>
<!DOCTYPE svg PUBLIC "-//W3C//DTD SVG 20010904//EN"
 "http://www.w3.org/TR/2001/REC-SVG-20010904/DTD/svg10.dtd">
<svg version="1.0" xmlns="http://www.w3.org/2000/svg"
 width="872.000000pt" height="410.000000pt" viewBox="0 0 872.000000 410.000000"
 preserveAspectRatio="xMidYMid meet">

<g transform="translate(0.000000,410.000000) scale(0.100000,-0.100000)"
fill="#fff" stroke="none">
<path d="M4048 3904 c-39 -21 -35 -34 12 -34 l40 0 0 -50 0 -50 -40 0 c-49 0
-51 -12 -5 -35 42 -19 84 -13 111 16 16 17 31 19 177 19 152 0 162 -1 184 -22
17 -16 37 -23 64 -23 27 0 46 7 61 23 l22 22 -42 0 -42 0 0 50 0 50 42 0 42 0
-22 22 c-15 16 -34 23 -61 23 -27 0 -47 -7 -64 -23 -22 -21 -32 -22 -180 -22
-150 0 -158 1 -193 25 -42 28 -67 31 -106 9z"/>
<path d="M4042 3649 c-39 -26 -53 -51 -94 -172 -20 -61 -41 -103 -62 -125 -31
-33 -31 -33 -31 -147 0 -104 2 -115 23 -137 15 -17 22 -37 22 -64 0 -53 14
-64 77 -64 57 0 73 14 73 64 l0 26 295 0 295 0 0 -33 c0 -46 15 -57 77 -57 49
0 54 2 64 27 5 15 9 36 7 48 -1 11 7 34 20 49 20 26 22 40 22 143 0 113 0 115
-28 141 -20 19 -39 58 -62 127 -40 121 -56 151 -96 176 -29 18 -52 19 -300 19
-256 0 -271 -1 -302 -21z m595 -176 l32 -93 -326 0 c-256 0 -324 3 -321 13 3
6 15 44 28 82 12 39 27 76 33 83 7 9 69 12 266 10 l256 -3 32 -92z m-562 -218
c49 -48 19 -119 -50 -119 -43 0 -75 30 -75 71 0 32 42 73 75 73 14 0 37 -11
50 -25z m620 19 c8 -4 23 -20 31 -36 26 -51 -12 -108 -72 -108 -24 0 -64 47
-64 75 0 49 58 87 105 69z"/>
<path d="M1200 3115 l0 -65 1175 0 1175 0 0 65 0 65 -1175 0 -1175 0 0 -65z"/>
<path d="M5130 3115 l0 -65 1175 0 1175 0 0 65 0 65 -1175 0 -1175 0 0 -65z"/>
<path d="M150 1740 l0 -1050 4190 0 4190 0 0 1050 0 1050 -4190 0 -4190 0 0
-1050z m8250 -5 l0 -915 -4060 0 -4060 0 0 915 0 915 4060 0 4060 0 0 -915z"/>
<path d="M1080 2041 l0 -38 -57 -7 c-76 -9 -135 -38 -178 -89 -88 -102 -84
-264 8 -364 48 -53 99 -79 175 -89 l52 -7 0 -43 0 -44 55 0 55 0 0 45 c0 40 2
45 23 45 53 0 130 32 174 73 70 64 88 106 88 207 0 98 -19 145 -81 200 -46 40
-85 57 -152 66 l-52 7 0 38 0 39 -55 0 -55 0 0 -39z m0 -316 l0 -175 -30 0
c-92 0 -159 94 -147 202 10 83 74 147 150 148 l27 0 0 -175z m200 153 c61 -42
75 -71 75 -153 0 -59 -4 -79 -21 -102 -30 -40 -82 -73 -115 -73 l-29 0 0 175
0 175 29 0 c15 0 43 -10 61 -22z"/>
<path d="M7501 2055 c-70 -20 -112 -46 -156 -97 -55 -65 -78 -137 -79 -248 -1
-123 19 -182 85 -254 66 -73 129 -99 234 -100 153 -2 244 49 305 168 34 68 35
71 35 190 0 103 -3 128 -22 168 -30 66 -95 132 -155 158 -66 28 -175 35 -247
15z m185 -101 c51 -24 100 -88 114 -146 18 -71 8 -193 -18 -244 -41 -81 -114
-120 -208 -112 -95 8 -164 81 -185 198 -31 173 68 320 214 320 27 0 64 -7 83
-16z"/>
<path d="M1650 1710 l0 -350 195 0 195 0 0 50 0 50 -140 0 -140 0 0 100 0 100
120 0 120 0 0 50 0 50 -120 0 -120 0 0 100 0 100 130 0 130 0 0 50 0 50 -185
0 -185 0 0 -350z"/>
<path d="M2200 1711 l0 -351 55 0 55 0 0 129 0 128 88 5 c104 6 163 29 208 80
42 48 57 97 52 168 -5 77 -40 129 -105 160 -42 21 -67 24 -200 28 l-153 4 0
-351z m275 245 c91 -38 84 -192 -10 -232 -19 -8 -62 -14 -95 -14 l-60 0 0 130
0 130 65 0 c36 0 81 -6 100 -14z"/>
<path d="M2830 1711 l0 -351 55 0 55 0 0 129 0 128 88 5 c104 6 163 29 208 80
42 48 57 97 52 168 -5 77 -40 129 -105 160 -42 21 -67 24 -200 28 l-153 4 0
-351z m275 245 c91 -38 84 -192 -10 -232 -19 -8 -62 -14 -95 -14 l-60 0 0 130
0 130 65 0 c36 0 81 -6 100 -14z"/>
<path d="M3399 2023 c102 -202 211 -450 206 -470 -3 -12 -23 -41 -45 -64 -35
-37 -43 -41 -77 -37 -21 3 -46 8 -55 12 -16 7 -18 2 -18 -47 l0 -56 44 -6
c105 -16 173 25 243 146 16 29 226 486 250 547 4 9 -11 12 -55 12 l-60 0 -34
-82 c-19 -46 -54 -131 -78 -190 l-43 -106 -73 169 c-100 231 -83 209 -160 209
l-64 0 19 -37z"/>
<path d="M4080 1710 l0 -350 50 0 50 0 0 288 1 287 29 -75 c15 -41 66 -169
113 -285 l85 -210 42 0 42 0 112 280 111 280 -3 -282 -4 -283 61 0 61 0 0 350
0 351 -81 -3 -81 -3 -107 -268 -108 -269 -78 199 c-43 109 -90 230 -105 268
l-28 70 -81 3 -81 3 0 -351z"/>
<path d="M5535 2043 c-3 -10 -60 -160 -125 -333 -65 -173 -121 -323 -125 -332
-6 -16 0 -18 57 -18 l64 0 29 90 29 91 139 -3 140 -3 31 -87 31 -88 62 0 c35
0 63 1 63 3 0 1 -58 157 -129 347 l-128 345 -65 3 c-55 2 -67 0 -73 -15z m170
-395 c7 -16 -2 -18 -99 -18 -58 0 -106 3 -106 8 0 4 23 75 51 158 l52 152 48
-142 c26 -77 51 -149 54 -158z"/>
<path d="M6070 1710 l0 -350 125 0 c149 0 211 12 264 51 121 87 102 267 -33
313 l-36 13 37 24 c51 33 74 69 80 121 9 80 -46 148 -137 167 -28 6 -107 11
-175 11 l-125 0 0 -350z m277 241 c39 -24 50 -66 29 -114 -19 -47 -60 -67
-136 -67 l-60 0 0 100 0 100 68 0 c48 0 76 -5 99 -19z m9 -286 c23 -10 39 -26
49 -49 19 -45 19 -60 -1 -101 -21 -46 -66 -65 -153 -65 l-71 0 0 115 0 115 70
0 c39 0 86 -6 106 -15z"/>
<path d="M6650 2010 l0 -50 100 0 100 0 0 -300 0 -300 55 0 55 0 0 300 0 300
105 0 105 0 0 50 0 50 -260 0 -260 0 0 -50z"/>
<path d="M1190 295 l0 -65 3150 0 3150 0 0 65 0 65 -3150 0 -3150 0 0 -65z"/>
</g>
</svg>
