<svg width="55" height="38" viewBox="0 0 55 38" fill="#fbdb0b" xmlns="http://www.w3.org/2000/svg">
<path fill="#fbdb0b" id="Vector" d="M5.00161 34.8299C5.53643 35.0891 6.13666 35.2344 6.77083 35.2344H47.3958C48.03 35.2344 48.6302 35.0891 49.1651 34.8299L33.1625 19.7687L27.9442 24.0662C27.4442 24.478 26.7225 24.478 26.2225 24.0662L21.0041 19.7687L5.00161 34.8299ZM3.09588 32.9058C3.10842 32.893 3.12126 32.8804 3.13441 32.8681L18.8966 18.0331L3.20165 5.10782C3.16743 5.07964 3.13494 5.05013 3.10421 5.01942C2.85044 5.54974 2.70833 6.14369 2.70833 6.77083V31.1719C2.70833 31.7921 2.84733 32.3799 3.09588 32.9058ZM51.0708 32.9058C51.3193 32.3799 51.4583 31.7921 51.4583 31.1719V6.77083C51.4583 6.14369 51.3162 5.54974 51.0625 5.01943C51.0317 5.05013 50.9992 5.07964 50.965 5.10782L35.2701 18.0331L51.0323 32.8681C51.0454 32.8804 51.0583 32.893 51.0708 32.9058ZM49.1412 3.1013C48.6124 2.84936 48.0206 2.70833 47.3958 2.70833H6.77083C6.14609 2.70833 5.55428 2.84936 5.02551 3.1013L27.0833 21.2666L49.1412 3.1013ZM6.77083 0H47.3958C51.1353 0 54.1667 3.03141 54.1667 6.77083V31.1719C54.1667 34.9113 51.1353 37.9427 47.3958 37.9427H6.77083C3.03141 37.9427 0 34.9113 0 31.1719V6.77083C0 3.03141 3.03141 0 6.77083 0Z" fill="white"/>
</svg>
