<?xml version="1.0" encoding="utf-8"?>
<!-- Generator: Adobe Illustrator 19.0.0, SVG Export Plug-In . SVG Version: 6.00 Build 0)  -->
<svg version="1.1" id="Layer_1" xmlns="http://www.w3.org/2000/svg" xmlns:xlink="http://www.w3.org/1999/xlink" x="0px" y="0px"
	 viewBox="0 0 64 64" style="enable-background:new 0 0 64 64;" xml:space="preserve" fill="#fbdb0b">
<g id="XMLID_36_">
	<path id="XMLID_44_" d="M60.4,28.3l-10.5-15c-0.5-0.7-1.2-1.1-2-1.2c-0.8-0.1-1.6,0.1-2.2,0.6l-4.2,3.4c-0.6,0.5-1,1.2-1.1,2
		c0,0.3,0,0.5,0,0.8c-0.4,0-0.8,0.1-1.2,0.1c-0.3,0-0.5,0.1-0.8,0.1c-1.6,0.1-3.3,0.6-5.1,1.3c-0.4,0.2-0.8,0.4-1.2,0.6
		c-1.8-0.9-3.5-1.5-5.2-1.8c-1.2-0.2-2.3-0.3-3.3-0.1c0.2-1.1-0.2-2.3-1.1-3l-4.2-3.4c-0.6-0.5-1.4-0.7-2.2-0.6
		c-0.8,0.1-1.5,0.5-2,1.2l-10.5,15c-0.9,1.3-0.7,3.2,0.6,4.3l4.2,3.4c0.5,0.4,1.1,0.6,1.8,0.6c0.1,0,0.3,0,0.4,0
		c0.5-0.1,0.9-0.3,1.3-0.6c0.3,0.9,0.8,1.8,1.5,2.7c-0.2,1,0,2.1,0.5,2.9c0.7,1.2,1.9,1.9,3.3,1.9c0.4,0,0.7-0.1,1-0.1
		c0.1,0.6,0.3,1.1,0.6,1.6c0.7,1.2,1.9,1.9,3.3,1.9c0.7,0,1.4-0.2,2.1-0.6c0.1,0.4,0.3,0.8,0.5,1.2c0.6,0.9,1.4,1.6,2.4,1.8
		c0.5,0.1,1,0.1,1.4,0c0.1,0.5,0.3,1.1,0.6,1.6c0.7,1.2,1.9,1.9,3.3,1.9c0.8,0,1.5-0.2,2.1-0.7l2.8-1.9c1-0.7,1.6-1.8,1.7-3
		c0.7-0.1,1.3-0.5,1.8-0.9c0.5-0.4,0.8-1,1-1.5c0.3,0.1,0.6,0.2,1,0.2c0.7,0.1,1.4-0.1,2-0.4l0.8-0.5l0.4-0.3l0.4-0.5
		c0-0.1,0.1-0.1,0.1-0.2c1.4,1.4,3.7,1.4,5.2,0.1c1.3-1.2,1.7-3.2,1-4.8c0.1-0.6,0.2-1.2,0.2-1.8c0.9,0.4,2,0.2,2.8-0.5l4.2-3.4
		c0.6-0.5,1-1.2,1.1-2C61.1,29.7,60.9,28.9,60.4,28.3z M45.2,21.7L45.2,21.7L45.2,21.7c-0.1-0.1-0.3-0.4-0.4-0.6
		c-0.2-0.3-0.3-0.5-0.4-0.6l0,0l-1.2-1.8c-0.1-0.2-0.1-0.5,0.1-0.6l4.2-3.4c0.1-0.1,0.3-0.1,0.4,0.1l10.5,15
		c0.1,0.1,0.1,0.2,0.1,0.3c0,0.1-0.1,0.2-0.1,0.3L54,33.9c-0.1,0-0.1,0.1-0.2,0.1c0,0-0.1,0-0.2-0.1l-5.8-8.3l0,0L45.2,21.7z
		 M42.5,33.6c-0.1-0.2-0.1-0.4-0.1-0.6c0-0.4,0.2-0.7,0.4-1c0.5-0.5,1.3-0.4,1.7,0.2l5.4,6.9c0.5,0.6,0.4,1.5-0.1,2
		c-0.2,0.2-0.6,0.3-0.9,0.3c-0.3,0-0.6-0.2-0.8-0.5L42.5,33.6z M20.9,18.7l-2.1,3c0,0-0.1,0.1-0.1,0.2l-8.3,11.9
		c-0.1,0.1-0.1,0.1-0.2,0.1c-0.1,0-0.1,0-0.2,0l-4.2-3.4c-0.2-0.1-0.2-0.4-0.1-0.6l10.5-15c0.1-0.1,0.1-0.1,0.2-0.1c0,0,0,0,0,0
		c0,0,0.1,0,0.1,0.1l4.2,3.4C21,18.3,21,18.5,20.9,18.7z M14.3,32.8l7.3-10.4c2.4-1.2,5.2-0.7,7.6,0.3c-0.6,0.4-1.1,0.7-1.2,0.8
		c-1.7,1.2-3,2.6-3.6,4c-0.7,1.4-0.8,2.8-0.2,3.9c0.6,1,1.7,1.6,3,1.7c1.2,0.1,2.6-0.3,4.1-1.1l4.9-3.1c0.4-0.2,1.1-0.4,1.3-0.3
		c0.1,0,0.2,0.3,0.2,0.3c0.1,0.3,0.2,1,0.9,1.7c0.3,0.3,0.8,0.8,1.5,1.1c0,0.1-0.1,0.2-0.1,0.3c-1.1-0.2-2.3,0.1-3.2,0.9
		c-0.5,0.4-0.8,1-1,1.5c-1.3-0.5-2.7-0.2-3.8,0.7c-0.5-0.6-1.2-1-2-1.2c-1-0.2-2,0-2.9,0.6l-1,0.7c-0.1-0.5-0.3-1-0.5-1.4
		c-0.6-0.9-1.4-1.6-2.4-1.8c-1-0.2-2.1,0-3,0.6l-5,3.5c-0.1,0-0.1,0.1-0.2,0.1C14.2,34.9,14,33.8,14.3,32.8z M46.6,30.5
		c-0.8-0.9-1.9-1.5-3-1.5c-0.5,0-1,0.1-1.5,0.3c-1.6-0.2-1.8-1-1.8-1l0-0.1c-0.3-1.3-1.1-1.9-1.7-2.2c-1.6-0.7-3.5,0.3-3.7,0.4
		l-4.8,3.1c-1,0.6-2,0.9-2.7,0.8c-0.4,0-0.7-0.1-0.8-0.3c-0.1-0.2-0.1-0.7,0.2-1.4c0.5-1,1.5-2,2.8-3l0.1-0.1
		c0.5-0.4,2.3-1.7,4.7-2.7c2.3-1,5.5-1.8,8.1-0.5l7.3,10.4c0.2,0.7,0.4,1.4,0.4,2.1L46.6,30.5z M16.2,40.2c-0.2-0.3-0.3-0.7-0.2-1.1
		c0.1-0.4,0.3-0.7,0.6-0.9l5-3.5c0.2-0.1,0.4-0.2,0.6-0.2c0.4,0,0.8,0.2,1,0.6c0.4,0.7,0.2,1.6-0.4,2l-5,3.5l0,0
		c-0.3,0.2-0.6,0.2-0.9,0.2C16.6,40.7,16.4,40.5,16.2,40.2z M21.1,43.6c-0.4-0.7-0.2-1.6,0.4-2l7.1-4.9c0.2-0.1,0.4-0.2,0.6-0.2
		c0.1,0,0.2,0,0.2,0c0.3,0.1,0.6,0.3,0.8,0.6c0.4,0.7,0.2,1.6-0.4,2l-4,2.7c-0.1,0.1-0.2,0.2-0.4,0.3L22.7,44h0
		c-0.3,0.2-0.6,0.2-0.9,0.2C21.5,44.1,21.2,43.9,21.1,43.6z M26.7,44.9c0.1-0.3,0.2-0.5,0.4-0.7l3.2-2.2c0.2-0.1,0.4-0.1,0.7,0
		c0.3,0.1,0.6,0.3,0.8,0.6c0.2,0.3,0.3,0.7,0.2,1.1c-0.1,0.3-0.2,0.5-0.3,0.7l-3,2.1l0,0c-0.3,0.2-0.6,0.2-0.9,0.2
		c-0.3-0.1-0.6-0.3-0.8-0.6C26.7,45.7,26.6,45.3,26.7,44.9z M31.3,49.4c-0.3-0.6-0.3-1.3,0.2-1.8l3-2.1c0.3-0.2,0.6-0.2,0.9-0.2
		c0.3,0.1,0.6,0.3,0.8,0.6c0.4,0.7,0.2,1.6-0.4,2L33,49.9c-0.3,0.2-0.6,0.2-0.9,0.2C31.8,50,31.5,49.8,31.3,49.4z M36.4,42.9l-3-3.7
		c-0.2-0.3-0.3-0.6-0.3-0.9c0-0.4,0.2-0.8,0.5-1.1c0.2-0.2,0.5-0.3,0.9-0.3c0.3,0,0.6,0.2,0.8,0.5l3.9,4.9c0.2,0.3,0.3,0.7,0.3,1.1
		c0,0.4-0.2,0.7-0.5,1c-0.2,0.2-0.4,0.3-0.7,0.3C37.9,43.7,37.2,43.2,36.4,42.9z M38.5,34.8c0.2-0.2,0.5-0.3,0.8-0.3
		c0.4,0,0.7,0.2,0.9,0.5l4.1,5.4c0.1,0.2,0.1,0.4,0.1,0.6c0,0.4-0.2,0.7-0.5,1c-0.2,0.2-0.5,0.3-0.9,0.3c-0.3,0-0.6-0.2-0.8-0.5
		l-3.9-4.9c-0.2-0.3-0.3-0.7-0.3-1.1C38.1,35.4,38.3,35.1,38.5,34.8z"/>
	<path id="XMLID_57_" d="M11.6,29.2c-0.1-0.4-0.3-1-0.6-1.4c-0.4-0.4-0.9-0.8-1.5-0.8c0,0,0,0,0,0C8.3,27,7,28.3,7,29.4v0.1
		c0,0.6,0.4,1.1,0.8,1.5c0.4,0.4,1,0.6,1.6,0.6c0.6,0,1.2-0.2,1.6-0.6c0.3-0.3,0.6-0.7,0.6-1.2l0,0L11.6,29.2L11.6,29.2z M8.9,29.5
		c0-0.2,0.1-0.3,0.2-0.4c0.1-0.1,0.3-0.2,0.4-0.2c0.3,0,0.6,0.3,0.6,0.6c0,0.3-0.3,0.6-0.6,0.6C9.1,30.1,8.9,29.8,8.9,29.5z"/>
	<path id="XMLID_60_" d="M54.3,32.2c0.6,0,1.1-0.2,1.5-0.6c0.3-0.3,0.5-0.7,0.6-1.2l0,0l0-0.6l0,0c-0.1-0.4-0.3-0.8-0.6-1.1
		c-0.4-0.4-0.9-0.6-1.5-0.6c0,0,0,0,0,0c-1.2,0-2.3,0.8-2.3,2v0.1c0,0.6,0.3,1.1,0.7,1.5C53.1,32,53.7,32.2,54.3,32.2z M54.2,30.6
		c-0.3,0-0.6-0.3-0.6-0.6c0-0.2,0.1-0.3,0.2-0.4c0.1-0.1,0.3-0.2,0.4-0.2c0.3,0,0.6,0.3,0.6,0.6C54.8,30.4,54.6,30.6,54.2,30.6z"/>
</g>
</svg>
